<?xml version="1.0" encoding="UTF-8" standalone="no"?>
<!DOCTYPE svg PUBLIC "-//W3C//DTD SVG 1.1//EN" "http://www.w3.org/Graphics/SVG/1.1/DTD/svg11.dtd">
<svg version="1.1" xmlns="http://www.w3.org/2000/svg" xmlns:xlink="http://www.w3.org/1999/xlink" preserveAspectRatio="xMidYMid meet" viewBox="0 0 640 640" width="1000" height="1000"><defs><path d="M639.09 320C639.09 496.11 496.11 639.09 320 639.09C143.89 639.09 0.91 496.11 0.91 320C0.91 143.89 143.89 0.91 320 0.91C496.11 0.91 639.09 143.89 639.09 320Z" id="fmdLZ7vqa"></path><path d="M391.24 197.34C391.24 256.3 343.37 304.16 284.42 304.16C225.46 304.16 177.59 256.3 177.59 197.34C177.59 138.38 225.46 90.51 284.42 90.51C343.37 90.51 391.24 138.38 391.24 197.34Z" id="c1OpgLVRji"></path><path d="M519.65 314.51C550.79 314.51 576.03 339.75 576.03 370.89C576.03 380.7 576.03 360.08 576.03 371.48C576.03 398.25 554.33 419.96 527.55 419.96C444.04 419.96 243.29 419.96 160.1 419.96C132.43 419.96 110 397.53 110 369.86C110 358.79 110 380.81 110 371.02C110 339.81 135.3 314.51 166.52 314.51C248.42 314.51 437.72 314.51 519.65 314.51Z" id="apdjDA2HO"></path><path d="M468.95 179.84C524.2 203.79 548.83 268.58 523.44 323.18C517.52 335.9 514.82 341.71 501.08 371.26C497.06 379.9 486.88 383.77 478.14 379.98C440.18 363.52 342.02 320.98 304.06 304.52C295.45 300.79 291.61 290.69 295.57 282.18C309.31 252.64 309.76 251.66 315.12 240.15C342.47 181.34 411.69 155.02 471.2 180.82C490.92 189.36 448.02 170.77 468.95 179.84Z" id="bDTWK8REI"></path><path d="M107.84 261.01C119.07 261.01 128.18 270.11 128.18 281.34C128.18 285.86 128.18 277.28 128.18 281.34C128.18 293.81 118.07 303.92 105.6 303.92C101.23 303.92 108.89 303.92 104.07 303.92C92.83 303.92 83.73 294.82 83.73 283.58C83.73 279.07 83.73 287.65 83.73 283.58C83.73 271.11 93.84 261.01 106.3 261.01C110.68 261.01 103.02 261.01 107.84 261.01Z" id="gVsjjtL7"></path><path d="" id="d1IHgzX1yB"></path><path d="" id="g2Azb1YzxX"></path><path d="M332.07 302.78C332.07 336.45 303.76 363.78 268.89 363.78C234.02 363.78 205.71 336.45 205.71 302.78C205.71 269.12 234.02 241.79 268.89 241.79C303.76 241.79 332.07 269.12 332.07 302.78Z" id="a31VdBay5C"></path><path d="M166.23 369.12C172.51 369.12 177.59 374.21 177.59 380.48C177.59 386.56 177.59 393.43 177.59 399.51C177.59 405.78 172.51 410.87 166.23 410.87C143.36 410.87 94.4 410.87 73.6 410.87C61.6 410.87 51.88 401.15 51.88 389.15C51.88 385.15 51.88 395.58 51.88 391.75C51.88 379.25 62.01 369.12 74.51 369.12C95.13 369.12 143.36 369.12 166.23 369.12Z" id="a13SpTjhz7"></path><path d="M464.58 330.94C487.56 330.94 506.2 349.57 506.2 372.56C506.2 390.32 506.2 400.73 506.2 418.18C506.2 442.03 486.86 461.36 463.02 461.36C392.41 461.36 223.3 461.36 152.57 461.36C129.06 461.36 110 442.3 110 418.79C110 401.22 110 392.28 110 375C110 350.67 129.73 330.94 154.06 330.94C224.49 330.94 393.66 330.94 464.58 330.94Z" id="c5LDywtP31"></path><path d="M448.97 456.81C448.97 488.67 423.1 514.54 391.24 514.54C359.38 514.54 333.51 488.67 333.51 456.81C333.51 424.95 359.38 399.09 391.24 399.09C423.1 399.09 448.97 424.95 448.97 456.81Z" id="aa9WdrSmy"></path></defs><g><g><g><use xlink:href="#fmdLZ7vqa" opacity="1" fill="#00a8ff" fill-opacity="1"></use></g><g><use xlink:href="#c1OpgLVRji" opacity="1" fill="#fecd30" fill-opacity="1"></use></g><g><use xlink:href="#apdjDA2HO" opacity="1" fill="#ffffff" fill-opacity="1"></use></g><g><use xlink:href="#bDTWK8REI" opacity="1" fill="#ffffff" fill-opacity="1"></use></g><g><use xlink:href="#gVsjjtL7" opacity="1" fill="#ffffff" fill-opacity="1"></use></g><g><g><use xlink:href="#d1IHgzX1yB" opacity="1" fill-opacity="0" stroke="#000000" stroke-width="1" stroke-opacity="1"></use></g></g><g><g><use xlink:href="#g2Azb1YzxX" opacity="1" fill-opacity="0" stroke="#000000" stroke-width="1" stroke-opacity="1"></use></g></g><g><use xlink:href="#a31VdBay5C" opacity="1" fill="#ffffff" fill-opacity="1"></use></g><g><use xlink:href="#a13SpTjhz7" opacity="1" fill="#ffffff" fill-opacity="1"></use></g><g><use xlink:href="#c5LDywtP31" opacity="1" fill="#ffffff" fill-opacity="1"></use></g><g><use xlink:href="#aa9WdrSmy" opacity="1" fill="#ffffff" fill-opacity="1"></use></g></g></g></svg>